<?xml version="1.0" encoding="utf-8"?><svg xmlns="http://www.w3.org/2000/svg" xmlns:xlink="http://www.w3.org/1999/xlink" width="200px" height="200px" viewBox="0 0 100 100" preserveAspectRatio="xMidYMid" style="margin-right:-2px;display:block;animation-play-state:paused" ><g transform="rotate(0 50 50)" style="animation-play-state:paused" ><rect x="47" y="24" rx="3" ry="6" width="6" height="12" fill="#fe718d" opacity="0.083333" style="opacity:0.083333;animation-play-state:paused" ></rect></g>
<g transform="rotate(30 50 50)" style="animation-play-state:paused" ><rect x="47" y="24" rx="3" ry="6" width="6" height="12" fill="#f47e60" opacity="0.166667" style="opacity:0.166667;animation-play-state:paused" ></rect></g>
<g transform="rotate(60 50 50)" style="animation-play-state:paused" ><rect x="47" y="24" rx="3" ry="6" width="6" height="12" fill="#f8b26a" opacity="0.25" style="opacity:0.25;animation-play-state:paused" ></rect></g>
<g transform="rotate(90 50 50)" style="animation-play-state:paused" ><rect x="47" y="24" rx="3" ry="6" width="6" height="12" fill="#abbd81" opacity="0.333333" style="opacity:0.333333;animation-play-state:paused" ></rect></g>
<g transform="rotate(120 50 50)" style="animation-play-state:paused" ><rect x="47" y="24" rx="3" ry="6" width="6" height="12" fill="#849b87" opacity="0.416667" style="opacity:0.416667;animation-play-state:paused" ></rect></g>
<g transform="rotate(150 50 50)" style="animation-play-state:paused" ><rect x="47" y="24" rx="3" ry="6" width="6" height="12" fill="#6492ac" opacity="0.5" style="opacity:0.5;animation-play-state:paused" ></rect></g>
<g transform="rotate(180 50 50)" style="animation-play-state:paused" ><rect x="47" y="24" rx="3" ry="6" width="6" height="12" fill="#637cb5" opacity="0.583333" style="opacity:0.583333;animation-play-state:paused" ></rect></g>
<g transform="rotate(210 50 50)" style="animation-play-state:paused" ><rect x="47" y="24" rx="3" ry="6" width="6" height="12" fill="#6a63b6" opacity="0.666667" style="opacity:0.666667;animation-play-state:paused" ></rect></g>
<g transform="rotate(240 50 50)" style="animation-play-state:paused" ><rect x="47" y="24" rx="3" ry="6" width="6" height="12" fill="#fe718d" opacity="0.75" style="opacity:0.75;animation-play-state:paused" ></rect></g>
<g transform="rotate(270 50 50)" style="animation-play-state:paused" ><rect x="47" y="24" rx="3" ry="6" width="6" height="12" fill="#f47e60" opacity="0.833333" style="opacity:0.833333;animation-play-state:paused" ></rect></g>
<g transform="rotate(300 50 50)" style="animation-play-state:paused" ><rect x="47" y="24" rx="3" ry="6" width="6" height="12" fill="#f8b26a" opacity="0.916667" style="opacity:0.916667;animation-play-state:paused" ></rect></g>
<g transform="rotate(330 50 50)" style="animation-play-state:paused" ><rect x="47" y="24" rx="3" ry="6" width="6" height="12" fill="#abbd81" opacity="1" style="animation-play-state:paused" ></rect></g><!-- generated by https://loading.io/ --></svg>